{"title":"The Big Bang Theory - S05E10 - 720p WEB-DL H.264 {$H@uN}","uid":6827903,"size":201958627,"categoryP":"video","categoryS":"hd___tv_shows","magnet":"?xt=urn:btih:b7bbfed5ed6b5c246cb10ef29985a6c51f8a5d4e&amp;dn=The+Big+Bang+Theory+-+S05E10+-+720p+WEB-DL+H.264+%7B%24H%40uN%7D&amp;tr=udp%3A%2F%2Ftracker.openbittorrent.com%3A80&amp;tr=udp%3A%2F%2Fopen.demonii.com%3A1337&amp;tr=udp%3A%2F%2Ftracker.coppersurfer.tk%3A6969&amp;tr=udp%3A%2F%2Fexodus.desync.com%3A6969","seeders":1,"leechers":11,"uploader":"ShaunGP","files":-1,"time":1321648049,"description":"&quot;WEB-DL means straight from iTunes where they release &quot;Bluray&quot; quality episodes.\n Such episodes are without any Logo and Caps.&quot;\n\nThe Big Bang Theory - S05E10 - The Flaming Spittoon Acquisitoin - 720p WEB-DL H.264 {$H@uN}\n\nGeneral:\n\nComplete name                  : The Big Bang Theory - S05E10 - The Flaming Spittoon Acquisitoin - 720p WEB-DL H.264 {$H@uN}.mkv\nOriginal air date              : November 17 2011\nGenre                          : Sitcom\nLanguage                       : English\nEncoder                        : $H@uN\nFile format                    : Matroska\nFile size                      : 193 MiB\nDuration                       : 20mn 41s\nOverall bit rate               : 1 301 Kbps\n\n\nVideo:\n\nFormat                         : AVC\nDuration                       : 20mn 41s\nBit rate                       : 1 200 Kbps\nWidth                          : 1 280 pixels\nHeight                         : 720 pixels\nDisplay aspect ratio           : 16:9\nFrame rate mode                : Variable\nFrame rate                     : 23.976 fps\nColor space                    : YUV\nChroma subsampling             : 4:2:0\nBit depth                      : 8 bits\nScan type                      : Progressive\nBits/(Pixel*Frame)             : 0.054\nStream size                    : 175 MiB (91%)\nWriting library                : x264 core 112\nLaguage                        : English\nSubtitles                      : Seperate .srt file included\n\n\nAudio:\n\nFormat                         : AC-3\nMode extension                 : CM (complete main)\nCodec ID                       : A_AC3\nDuration                       : 20mn 41s\nBit rate mode                  : Constant\nBit rate                       : 96 Kbps\nChannel(s)                     : 2 channels\nChannel positions              : Front: L R\nSampling rate                  : 48.0 KHz\nBit depth                      : 16 bits\nCompression mode               : Lossy\nStream size                    : 14.2 MiB (7%)\nLanguage                       : English\n\nScreen Shots:\n\n\n\n\n\nEncoder's Notes:\n\nDo Provide Feedback.\nKeep in Mind, you are charged nothing for Downloading a TORRENT,\nso its your duty to SEED n keep the torrent alive for as long as possible.\nEnjoy..!!! Keep Seeding till 1:1 ratio...","torrent":{"xt":"urn:btih:b7bbfed5ed6b5c246cb10ef29985a6c51f8a5d4e","amp;dn":"The+Big+Bang+Theory+-+S05E10+-+720p+WEB-DL+H.264+%7B%24H%40uN%7D","amp;tr":["udp%3A%2F%2Ftracker.openbittorrent.com%3A80","udp%3A%2F%2Fopen.demonii.com%3A1337","udp%3A%2F%2Ftracker.coppersurfer.tk%3A6969","udp%3A%2F%2Fexodus.desync.com%3A6969"],"infoHash":"b7bbfed5ed6b5c246cb10ef29985a6c51f8a5d4e","infoHashBuffer":{"type":"Buffer","data":[183,187,254,213,237,107,92,36,108,177,14,242,153,133,166,197,31,138,93,78]},"announce":[],"urlList":[]}}